Coordinates
version=1
nRows=6
nColumns=38
inDegrees=yes

Units are S.I. units (second, meters, Newtons, ...)
Angles are in degrees.

endheader
time	pelvis_tilt	pelvis_list	pelvis_rotation	pelvis_tx	pelvis_ty	pelvis_tz	hip_flexion_r	hip_adduction_r	hip_rotation_r	knee_angle_r	ankle_angle_r	subtalar_angle_r	mtp_angle_r	hip_flexion_l	hip_adduction_l	hip_rotation_l	knee_angle_l	ankle_angle_l	subtalar_angle_l	mtp_angle_l	lumbar_extension	lumbar_bending	lumbar_rotation	arm_flex_r	arm_add_r	arm_rot_r	elbow_flex_r	pro_sup_r	wrist_flex_r	wrist_dev_r	arm_flex_l	arm_add_l	arm_rot_l	elbow_flex_l	pro_sup_l	wrist_flex_l	wrist_dev_l
      1.56000000	      0.17358513	      0.80411588	     -0.78602555	      0.25083472	      1.05290228	     -0.27330134	     21.22172778	     -2.48989530	     -6.11301430	    -52.55107619	      1.19632326	     -6.31187976	      0.00000000	      0.43575812	      3.59000474	     -0.80175554	     -9.79443531	      8.87771491	     -1.84210810	      0.00000000	     -8.44213389	      0.07917630	      0.42784393	      4.49302007	     -6.98311386	     52.26191134	     23.06110357	     44.24393496	      0.00000000	      0.00000000	      1.41129904	     -8.58604431	     39.01396418	     33.51895100	     44.24393496	      0.00000000	      0.00000000
      1.57000000	      0.09217142	      0.84697544	     -0.52309579	      0.26239624	      1.05176680	     -0.27358673	     22.14336386	     -2.53177616	     -6.37792949	    -50.46460343	      1.52329339	     -6.85351222	      0.00000000	     -0.45886312	      3.65085720	     -0.46991029	     -9.27455319	      9.43041893	     -1.74486611	      0.00000000	     -8.44754941	      0.06513217	      0.15595001	      4.52215060	     -6.98499105	     52.25768685	     23.08042253	     44.24817870	      0.00000000	      0.00000000	      1.91156751	     -8.79423204	     38.96522952	     33.80833185	     44.24817870	      0.00000000	      0.00000000
      1.58000000	      0.22806201	      0.80389097	     -0.24319130	      0.27412994	      1.05077212	     -0.27382520	     22.72839565	     -2.50838650	     -6.70824761	    -48.07213010	      1.81382027	     -7.24465288	      0.00000000	     -1.56133746	      3.62070232	      0.00230615	     -8.83536256	     10.03862317	     -1.80619402	      0.00000000	     -8.71228326	      0.16390552	     -0.14555844	      4.59511935	     -7.00737312	     52.21885206	     23.14992822	     44.25743951	      0.00000000	      0.00000000	      2.33627914	     -9.06191341	     38.93609728	     34.39986964	     44.25743951	      0.00000000	      0.00000000
      1.59000000	      0.27894850	      0.92976044	      0.01228741	      0.28584564	      1.04931263	     -0.27405049	     23.24148167	     -2.56636387	     -6.64312671	    -45.41337494	      2.28131524	     -7.36347034	      0.00000000	     -2.62580416	      3.78706781	      0.78242086	     -8.29350979	     10.42019060	     -2.38134722	      0.00000000	     -8.87452960	      0.05313409	     -0.43103360	      4.68464508	     -7.02386686	     52.14697805	     23.26559088	     44.29975599	      0.00000000	      0.00000000	      2.47765515	     -9.65215117	     38.64395408	     36.25036493	     44.29975599	      0.00000000	      0.00000000
      1.60000000	      0.31521532	      1.06639933	      0.28542875	      0.29754088	      1.04775011	     -0.27431889	     23.86231434	     -2.81451886	     -7.15168596	    -42.79326800	      2.07731660	     -7.60433360	      0.00000000	     -3.60593039	      3.90269609	      0.98894795	     -7.86770867	     11.06588171	     -2.14544370	      0.00000000	     -9.01658931	     -0.05558230	     -0.71399968	      4.73110408	     -7.02511752	     52.11166008	     23.32070541	     44.30563920	      0.00000000	      0.00000000	      2.98838899	     -9.80795276	     38.46427349	     36.47049387	     44.30563920	      0.00000000	      0.00000000
      1.61000000	      0.46856845	      1.18539119	      0.55718091	      0.30939741	      1.04617140	     -0.27450049	     24.12438598	     -2.93977410	     -7.31419205	    -39.83423497	      2.07720963	     -7.50466142	      0.00000000	     -4.78799334	      3.98493390	      1.34716510	     -7.33912945	     11.58688274	     -1.97706199	      0.00000000	     -9.29153244	     -0.14713357	     -0.98854021	      4.82546313	     -7.02963335	     52.06775850	     23.37404342	     44.31405585	      0.00000000	      0.00000000	      3.42314623	     -9.98977039	     38.28885356	     36.84398595	     44.31405585	      0.00000000	      0.00000000
